HIERARCHY
ROOT Hips
{
	OFFSET -0.001795 -0.223333 0.028219
	CHANNELS 6 Xposition Yposition Zposition Zrotation Yrotation Xrotation 
	JOINT LeftUpLeg
	{
		OFFSET 0.069520 -0.091406 -0.006815
		CHANNELS 3 Zrotation Yrotation Xrotation
		JOINT LeftLeg
		{
			OFFSET 0.034277 -0.375199 -0.004496
			CHANNELS 3 Zrotation Yrotation Xrotation
			JOINT LeftFoot
			{
				OFFSET -0.013596 -0.397961 -0.043693
				CHANNELS 3 Zrotation Yrotation Xrotation
				JOINT LeftToe
				{
					OFFSET 0.026358 -0.055791 0.119288
					CHANNELS 3 Zrotation Yrotation Xrotation
					End Site
					{
						OFFSET 0.000000 0.000000 0.000000
					}
				}
			}
		}
	}
	JOINT RightUpLeg
	{
		OFFSET -0.067670 -0.090522 -0.004320
		CHANNELS 3 Zrotation Yrotation Xrotation
		JOINT RightLeg
		{
			OFFSET -0.038290 -0.382569 -0.008850
			CHANNELS 3 Zrotation Yrotation Xrotation
			JOINT RightFoot
			{
				OFFSET 0.015774 -0.398415 -0.042312
				CHANNELS 3 Zrotation Yrotation Xrotation
				JOINT RightToe
				{
					OFFSET -0.025372 -0.048144 0.123348
					CHANNELS 3 Zrotation Yrotation Xrotation
					End Site
					{
						OFFSET 0.000000 0.000000 0.000000
					}
				}
			}
		}
	}
	JOINT Spine
	{
		OFFSET -0.002533 0.108963 -0.026696
		CHANNELS 3 Zrotation Yrotation Xrotation
		JOINT Spine1
		{
			OFFSET 0.005487 0.135180 0.001092
			CHANNELS 3 Zrotation Yrotation Xrotation
			JOINT Spine2
			{
				OFFSET 0.001457 0.052922 0.025425
				CHANNELS 3 Zrotation Yrotation Xrotation
				JOINT Neck
				{
					OFFSET -0.002778 0.213870 -0.042857
					CHANNELS 3 Zrotation Yrotation Xrotation
					JOINT Head
					{
						OFFSET 0.005152 0.064970 0.051349
						CHANNELS 3 Zrotation Yrotation Xrotation
						End Site
						{
							OFFSET 0.000000 0.000000 0.000000
						}
					}
				}
				JOINT LeftShoulder
				{
					OFFSET 0.078845 0.121749 -0.034090
					CHANNELS 3 Zrotation Yrotation Xrotation
					JOINT LeftArm
					{
						OFFSET 0.090977 0.030469 -0.008868
						CHANNELS 3 Zrotation Yrotation Xrotation
						JOINT LeftForeArm
						{
							OFFSET 0.259612 -0.012772 -0.027456
							CHANNELS 3 Zrotation Yrotation Xrotation
							JOINT LeftHand
							{
								OFFSET 0.249234 0.008986 -0.001171
								CHANNELS 3 Zrotation Yrotation Xrotation
								End Site
								{
									OFFSET 0.000000 0.000000 0.000000
								}
							}
						}
					}
				}
				JOINT RightShoulder
				{
					OFFSET -0.081759 0.118833 -0.038615
					CHANNELS 3 Zrotation Yrotation Xrotation
					JOINT RightArm
					{
						OFFSET -0.096012 0.032551 -0.009143
						CHANNELS 3 Zrotation Yrotation Xrotation
						JOINT RightForeArm
						{
							OFFSET -0.253742 -0.013329 -0.021401
							CHANNELS 3 Zrotation Yrotation Xrotation
							JOINT RightHand
							{
								OFFSET -0.255298 0.007772 -0.005559
								CHANNELS 3 Zrotation Yrotation Xrotation
								End Site
								{
									OFFSET 0.000000 0.000000 0.000000
								}
							}
						}
					}
				}
			}
		}
	}
}
MOTION
Frames: 15
Frame Time: 0.050000
0.000000 0.943409 0.000000 -0.688641 -5.441897 8.979006 7.201443 -0.344359 -6.825657 0.356787 -0.071430 0.915179 0.938868 5.117550 10.683803 0.000000 0.000000 0.000000 -3.028144 0.707754 -7.320230 0.042538 -0.064992 -1.556259 0.841823 -3.397563 10.288969 0.000000 0.000000 0.000000 5.521040 0.350237 -5.880292 -3.069393 1.314301 -6.781427 -2.607480 6.140629 6.138434 6.614763 -3.018349 -12.936372 0.000000 0.000000 0.000000 -14.954297 3.556991 -3.764017 -55.734918 -6.119629 -3.889848 -8.049746 -16.524187 1.683750 0.000000 0.000000 0.000000 12.996875 -9.627761 -5.257572 63.409471 2.806900 -4.457913 8.018723 18.443335 1.893994 0.000000 0.000000 0.000000 
0.000105 0.942558 0.000550 -0.908300 -6.189728 9.713760 7.611372 -0.314451 -6.271800 -0.119363 0.046983 -1.042194 1.280668 5.654838 10.885262 0.000000 0.000000 0.000000 -2.893777 0.799309 -8.348163 0.033978 -0.052253 -1.252130 1.095082 -2.897742 10.080382 0.000000 0.000000 0.000000 6.277528 0.407225 -6.362379 -3.463200 1.455413 -6.879938 -3.188834 7.125075 5.179146 7.148585 -3.254465 -13.110191 0.000000 0.000000 0.000000 -15.867227 4.218420 -4.404060 -54.655297 -6.137014 -3.683347 -8.988526 -16.680566 1.803343 0.000000 0.000000 0.000000 13.186735 -11.180431 -5.969207 63.823687 1.464579 -5.039076 8.769089 19.198815 2.118586 0.000000 0.000000 0.000000 
0.000137 0.942511 0.000876 -0.568355 -5.902116 9.215704 7.109064 -0.332834 -6.379548 0.160777 -0.015842 -0.058987 1.151226 5.421281 10.664083 0.000000 0.000000 0.000000 -2.729012 0.788237 -8.254989 -0.858365 0.060835 -0.363760 0.839370 -3.173622 9.614440 0.000000 0.000000 0.000000 5.974778 0.367776 -5.974742 -3.181108 1.332698 -7.772217 -3.580536 6.926689 5.511370 7.245931 -3.538799 -11.908823 0.000000 0.000000 0.000000 -15.405932 3.571515 -3.991854 -54.669349 -5.562373 -4.002300 -8.968440 -16.637279 1.799549 0.000000 0.000000 0.000000 14.341204 -10.181102 -5.644145 62.726199 1.333620 -5.141523 8.681449 19.152191 2.102464 0.000000 0.000000 0.000000 
0.000104 0.942255 0.001180 -0.564485 -5.774579 9.722264 7.881883 -0.317771 -6.572823 -1.150477 0.151601 -0.713843 1.042507 5.282496 10.815599 0.000000 0.000000 0.000000 -2.844747 0.831529 -8.766597 -0.659542 0.043030 -0.373343 0.753741 -3.329866 9.620043 0.000000 0.000000 0.000000 5.860563 0.385883 -6.283637 -3.333429 1.405718 -7.106340 -3.335273 6.383929 3.822799 7.401689 -3.846915 -10.717091 0.000000 0.000000 0.000000 -15.268980 4.609923 -4.419528 -55.233642 -6.040699 -3.667343 -8.478193 -16.244865 1.687291 0.000000 0.000000 0.000000 13.243465 -10.736125 -5.835849 62.984703 0.681618 -5.307734 10.025284 19.589560 2.334527 0.000000 0.000000 0.000000 
0.000029 0.942463 0.001419 -0.416008 -5.390730 9.497843 7.423009 -0.340534 -6.616921 -0.538777 0.073428 -0.362407 0.868665 5.018029 10.755454 0.000000 0.000000 0.000000 -2.760034 0.810455 -8.536702 -1.009051 0.081674 -0.228071 0.567826 -3.636009 9.564798 0.000000 0.000000 0.000000 5.593037 0.367626 -6.139806 -3.017339 1.291360 -6.806042 -3.483136 6.200809 3.479082 7.118914 -3.598856 -10.950500 0.000000 0.000000 0.000000 -15.293415 4.447929 -4.371588 -55.162728 -6.489075 -3.423146 -8.833750 -16.194238 1.724809 0.000000 0.000000 0.000000 12.907409 -10.731867 -5.769660 63.230664 0.806023 -5.205962 10.146307 19.531108 2.346267 0.000000 0.000000 0.000000 
-0.000064 0.942635 0.001652 -0.325252 -5.193148 9.619248 7.472762 -0.343185 -6.548224 -0.741157 0.107058 -0.791786 0.730838 4.847371 10.922121 0.000000 0.000000 0.000000 -2.810793 0.804301 -8.471836 -1.053262 0.071633 -0.515012 0.499386 -3.795863 9.674567 0.000000 0.000000 0.000000 5.384441 0.370244 -6.245022 -2.916370 1.252204 -6.920733 -3.525357 6.200411 3.166548 7.339789 -3.803772 -10.536430 0.000000 0.000000 0.000000 -15.710825 4.878586 -4.693841 -54.868483 -6.660585 -3.284764 -8.686640 -15.962357 1.673281 0.000000 0.000000 0.000000 12.795383 -10.764826 -5.755360 63.373717 0.723387 -5.210156 10.232237 19.371354 2.338283 0.000000 0.000000 0.000000 
-0.000153 0.942616 0.001814 -0.285874 -5.062390 9.524614 7.302022 -0.353391 -6.664194 -0.480006 0.068664 -0.443764 0.691229 4.771766 10.827321 0.000000 0.000000 0.000000 -2.712890 0.794217 -8.346935 -1.265895 0.091542 -0.498118 0.432656 -3.895503 9.627276 0.000000 0.000000 0.000000 5.339991 0.360864 -6.154564 -2.993492 1.285806 -6.871623 -3.566381 6.121182 2.959289 7.537325 -3.847478 -10.987566 0.000000 0.000000 0.000000 -15.684728 4.792907 -4.653437 -54.850542 -6.690547 -3.250493 -8.635670 -15.754225 1.642575 0.000000 0.000000 0.000000 12.821674 -10.758741 -5.757431 63.561289 0.822976 -5.149604 10.089384 19.177473 2.287545 0.000000 0.000000 0.000000 
-0.000180 0.942735 0.001912 -0.324365 -4.821186 9.646185 7.153326 -0.372312 -6.937130 -0.082788 0.018757 -0.270230 0.607433 4.648897 10.801890 0.000000 0.000000 0.000000 -2.682828 0.790135 -8.294608 -1.197938 0.073154 -0.750361 0.358869 -4.072636 9.769410 0.000000 0.000000 0.000000 5.323262 0.357171 -6.165455 -2.961707 1.275919 -6.896901 -3.721865 6.172270 2.661569 7.731386 -4.008094 -10.689697 0.000000 0.000000 0.000000 -15.754370 4.620128 -4.632041 -54.511641 -6.892062 -3.102578 -8.604029 -15.217522 1.574274 0.000000 0.000000 0.000000 13.098000 -10.734583 -5.764805 63.371394 1.034062 -4.981704 10.379428 18.496131 2.241002 0.000000 0.000000 0.000000 
-0.000206 0.942857 0.001955 -0.359894 -4.924896 9.636821 7.017507 -0.377358 -6.994649 0.197916 -0.018618 -0.097937 0.672286 4.747149 10.799565 0.000000 0.000000 0.000000 -2.652359 0.780544 -8.166595 -1.198593 0.061185 -0.983277 0.437019 -3.968869 9.866482 0.000000 0.000000 0.000000 5.332749 0.353826 -6.119604 -2.954913 1.269664 -7.045077 -3.659532 6.331045 2.802918 7.866148 -4.082218 -10.766720 0.000000 0.000000 0.000000 -15.669126 4.554541 -4.593984 -54.520066 -7.148609 -3.002627 -8.438996 -14.534039 1.482547 0.000000 0.000000 0.000000 13.259443 -10.677257 -5.749543 63.155863 1.357991 -4.810074 10.177395 18.214166 2.176224 0.000000 0.000000 0.000000 
-0.000224 0.942979 0.001947 -0.362523 -4.966173 9.702830 6.991377 -0.383921 -7.188540 0.241050 -0.031178 0.129823 0.701732 4.795601 10.812424 0.000000 0.000000 0.000000 -2.670728 0.789924 -8.276401 -1.169565 0.061281 -0.930203 0.458234 -3.946808 9.903814 0.000000 0.000000 0.000000 5.403898 0.367176 -6.257150 -3.022328 1.297527 -6.904979 -3.683643 6.454188 2.716321 8.092572 -4.215641 -10.809438 0.000000 0.000000 0.000000 -15.403785 4.370471 -4.471997 -54.516015 -7.496928 -2.841420 -8.420557 -13.783086 1.400813 0.000000 0.000000 0.000000 13.150151 -10.563491 -5.663023 63.132910 1.778539 -4.563428 10.103020 17.655038 2.090042 0.000000 0.000000 0.000000 
-0.000253 0.943168 0.001873 -0.379048 -5.177656 9.744564 7.024166 -0.377959 -7.121172 0.166581 -0.018447 0.005061 0.784227 4.938928 10.920317 0.000000 0.000000 0.000000 -2.616482 0.798090 -8.352689 -1.273367 0.068909 -0.942379 0.565648 -3.785300 9.964771 0.000000 0.000000 0.000000 5.520598 0.365744 -6.211265 -3.077380 1.316159 -6.897632 -3.635962 6.554448 2.727159 8.228705 -4.315632 -10.777315 0.000000 0.000000 0.000000 -15.392776 4.242618 -4.403067 -54.430925 -7.446881 -2.857431 -8.338565 -13.578549 1.371538 0.000000 0.000000 0.000000 13.139742 -10.453202 -5.611650 62.978909 1.997402 -4.442603 10.423313 17.417273 2.100008 0.000000 0.000000 0.000000 
-0.000242 0.943227 0.001697 -0.427074 -5.274504 9.945484 7.170381 -0.375817 -7.224840 -0.014491 0.008067 -0.172575 0.825217 5.016446 11.004849 0.000000 0.000000 0.000000 -2.574585 0.811413 -8.486031 -1.281807 0.059072 -1.141894 0.631601 -3.713705 10.076691 0.000000 0.000000 0.000000 5.652166 0.377804 -6.338179 -3.056823 1.307297 -6.799466 -3.606443 6.612475 2.577838 8.361221 -4.350612 -11.027544 0.000000 0.000000 0.000000 -15.306809 4.308167 -4.420003 -54.461535 -7.262369 -2.929520 -8.477643 -13.462643 1.374310 0.000000 0.000000 0.000000 12.895364 -10.456339 -5.577979 63.049240 1.952019 -4.443329 10.661859 17.649413 2.164717 0.000000 0.000000 0.000000 
-0.000200 0.943417 0.001402 -0.476993 -5.318461 10.117768 7.225935 -0.379150 -7.380998 -0.024474 0.011268 -0.237826 0.845277 5.066012 11.095219 0.000000 0.000000 0.000000 -2.493030 0.830346 -8.683921 -1.348788 0.062973 -1.168735 0.670292 -3.692165 10.190323 0.000000 0.000000 0.000000 5.685026 0.380940 -6.393282 -2.931087 1.255514 -6.826095 -3.546199 6.647866 2.403401 8.489336 -4.448519 -10.935385 0.000000 0.000000 0.000000 -15.287888 4.318597 -4.424997 -54.345743 -7.040280 -3.003921 -8.883390 -13.573164 1.430616 0.000000 0.000000 0.000000 12.863548 -10.450316 -5.573066 62.827246 2.025001 -4.370476 11.095500 17.923203 2.264733 0.000000 0.000000 0.000000 
-0.000159 0.943602 0.000980 -0.566944 -5.445369 10.221400 7.335089 -0.377371 -7.567288 -0.072267 0.012211 -0.090390 0.914760 5.178211 11.138164 0.000000 0.000000 0.000000 -2.521346 0.851324 -8.923014 -1.153465 0.054106 -1.020358 0.740824 -3.602660 10.272285 0.000000 0.000000 0.000000 5.732110 0.378500 -6.367491 -2.889441 1.238136 -6.717623 -3.416830 6.654149 2.283552 8.592904 -4.514878 -10.960453 0.000000 0.000000 0.000000 -15.247619 4.318114 -4.403321 -54.259939 -6.923987 -3.038418 -9.256738 -13.596171 1.476919 0.000000 0.000000 0.000000 12.812798 -10.256137 -5.485150 62.670476 2.161262 -4.282650 11.332798 18.444788 2.372290 0.000000 0.000000 0.000000 
-0.000148 0.943941 0.000505 -0.514357 -5.486091 10.302072 7.274882 -0.384392 -7.733102 -0.073047 0.009909 -0.011617 0.916190 5.207377 11.267632 0.000000 0.000000 0.000000 -2.664923 0.867430 -9.137890 -1.010109 0.049305 -0.875350 0.763962 -3.600220 10.364973 0.000000 0.000000 0.000000 5.737005 0.376126 -6.359215 -2.830382 1.213228 -6.782963 -3.481697 6.734749 2.339973 8.658838 -4.535522 -11.067728 0.000000 0.000000 0.000000 -15.197264 4.202796 -4.348158 -54.049665 -6.789942 -3.089990 -9.616214 -14.023030 1.565422 0.000000 0.000000 0.000000 12.790532 -10.115054 -5.405136 62.678937 2.463102 -4.124376 11.547437 18.907394 2.477457 0.000000 0.000000 0.000000 
